<svg version="1.1" preserveAspectRatio="none" xmlns="http://www.w3.org/2000/svg" width="500" height="500" viewBox="0 0 500 500"><rect width="100%" height="100%" fill="#262626" fill-opacity="1"/><svg viewBox="25.9385 150.8297 461.6975 157.6" width="333" height="113.6692314773201" x="83.5px" y="193.1654px" xmlns="http://www.w3.org/2000/svg" xmlns:xlink="http://www.w3.org/1999/xlink" preserveAspectRatio="none"><defs></defs><style>.ag5fOcfGctfillColor {fill:#31413D;fill-opacity:0;}.background {fill:#262626;fill-opacity:1;}.companyName {fill:#EFE1DD;fill-opacity:1;}.icon3-str {stroke:#B29C96;stroke-opacity:1;}.shapeStroke-str {stroke:#1E1E1E;stroke-opacity:1;}.text-str {stroke:#EFE1DD;stroke-opacity:1;}</style><g opacity="1" transform="rotate(0 25.9385 150.8297)">
<svg width="461.6975" height="157.6" x="25.9385" y="150.8297" version="1.1" preserveAspectRatio="none" viewBox="0 0 461.6975 157.6">
  <defs><rect x="0.788" y="0.788" width="460.12149999999997" height="156.024" rx="0px" ry="0px" id="id-g5fOcfGct1680500659038"></rect></defs><use class="ag5fOcfGctfillColor text-str" style="stroke-width:1.576;" xlink:href="#id-g5fOcfGct1680500659038"></use>
</svg>
</g><g opacity="1" transform="rotate(0 35.9385 160.8297)">
<svg width="441.6975" height="137.6" x="35.9385" y="160.8297" version="1.1" preserveAspectRatio="none" viewBox="0 0 441.6975 137.6">
  <defs><rect x="0" y="0" width="441.6975" height="137.6" rx="0%" ry="0%" id="id-UPl23ini1680500659038"></rect></defs><use class="companyName shapeStroke-str" style="stroke-width:0;" xlink:href="#id-UPl23ini1680500659038"></use>
</svg>
</g><g opacity="1" transform="rotate(0 217.2884 246.8297)">
<svg width="78.9977" height="21.6" x="217.2884" y="246.8297" version="1.1" preserveAspectRatio="none" viewBox="2.36 -29.24 108.39999999999999 29.64">
  <g transform="matrix(1 0 0 1 0 0)" class="background"><path id="id-6izo4zJp4" d="M26.84-2.48Q25.52-1.44 22.70-0.56Q19.88 0.32 17.48 0.32L17.48 0.32Q12.96 0.32 9.52-1.54Q6.08-3.40 4.22-6.64Q2.36-9.88 2.36-13.92L2.36-13.92Q2.36-18.64 4.36-22.10Q6.36-25.56 9.76-27.40Q13.16-29.24 17.20-29.24L17.20-29.24Q19.64-29.24 21.80-28.66Q23.96-28.08 25.68-27.12L25.68-27.12L24.40-23.56Q23.12-24.28 21.18-24.82Q19.24-25.36 17.68-25.36L17.68-25.36Q14.32-25.36 11.74-24Q9.16-22.64 7.76-20.12Q6.36-17.60 6.36-14.24L6.36-14.24Q6.36-11.12 7.76-8.68Q9.16-6.24 11.72-4.90Q14.28-3.56 17.56-3.56L17.56-3.56Q19.08-3.56 20.52-3.86Q21.96-4.16 22.92-4.72L22.92-4.72L22.92-10.44L17.16-10.44L17.16-14.16L26.84-14.16L26.84-2.48Z M48.48-16.56L51.92-16.56L51.92 0L48.20 0L48.20-2.72Q47.32-1.56 45.64-0.58Q43.96 0.40 41.84 0.40L41.84 0.40Q39.48 0.40 37.58-0.62Q35.68-1.64 34.58-3.60Q33.48-5.56 33.48-8.28L33.48-8.28Q33.48-11 34.62-13.02Q35.76-15.04 37.70-16.14Q39.64-17.24 42-17.24L42-17.24Q44.12-17.24 45.68-16.32Q47.24-15.40 48.20-13.92L48.20-13.92L48.48-16.56ZM42.84-2.68Q44.88-2.68 46.34-3.82Q47.80-4.96 48.20-6.92L48.20-6.92L48.20-10.20Q47.72-11.96 46.20-13.06Q44.68-14.16 42.72-14.16L42.72-14.16Q41.24-14.16 39.98-13.44Q38.72-12.72 37.98-11.42Q37.24-10.12 37.24-8.48L37.24-8.48Q37.24-6.88 38-5.56Q38.76-4.24 40.04-3.46Q41.32-2.68 42.84-2.68L42.84-2.68Z M81.24-17.24Q83.64-17.24 85.06-15.88Q86.48-14.52 86.56-12.28L86.56-12.28L86.56 0L82.84 0L82.84-10.92Q82.72-13.84 80.20-14L80.20-14Q78.76-14 77.62-13.14Q76.48-12.28 75.84-10.88Q75.20-9.48 75.16-7.88L75.16-7.88L75.16 0L71.40 0L71.40-10.92Q71.28-13.84 68.68-14L68.68-14Q67.28-14 66.14-13.14Q65-12.28 64.36-10.86Q63.72-9.44 63.72-7.84L63.72-7.84L63.72 0L60.00 0L60.00-16.56L63.36-16.56L63.64-13.44Q64.60-15.24 66.26-16.24Q67.92-17.24 70.04-17.24L70.04-17.24Q72.04-17.24 73.40-16.30Q74.76-15.36 75.16-13.72L75.16-13.72Q76.20-15.36 77.80-16.30Q79.40-17.24 81.24-17.24L81.24-17.24Z M102.36-2.80Q104.44-2.80 106.40-4.24L106.40-4.24L108.12-1.48Q106.80-0.60 105.26-0.10Q103.72 0.40 102.28 0.40L102.28 0.40Q99.52 0.40 97.46-0.74Q95.40-1.88 94.28-3.88Q93.16-5.88 93.16-8.40L93.16-8.40Q93.16-10.84 94.38-12.86Q95.60-14.88 97.72-16.06Q99.84-17.24 102.36-17.24L102.36-17.24Q105.60-17.24 107.78-15.34Q109.96-13.44 110.76-10.04L110.76-10.04L97.64-5.44Q98.36-4.20 99.58-3.50Q100.80-2.80 102.36-2.80L102.36-2.80ZM102.08-14.28Q99.80-14.28 98.32-12.68Q96.84-11.08 96.84-8.60L96.84-8.60Q96.84-8 96.88-7.68L96.88-7.68L106.52-11.24Q105.92-12.60 104.82-13.44Q103.72-14.28 102.08-14.28L102.08-14.28Z"/></g>
</svg>
</g><g opacity="1" transform="rotate(0 65.9385 190.8297)">
<svg width="381.6975" height="36" x="65.9385" y="190.8297" version="1.1" preserveAspectRatio="none" viewBox="1.12 -28.32 306.2 28.880000000000003">
  <g transform="matrix(1 0 0 1 0 0)" class="background"><path id="id-D6z1nYkh13" d="M29.32-2.12L29.84-1.60Q28.64-0.40 27.20 0.08Q25.76 0.56 23.84 0.56L23.84 0.56Q21.08 0.56 19.56-0.42Q18.04-1.40 17.68-3.76L17.68-3.76L17.08-7.76Q16.68-10.56 15.98-12Q15.28-13.44 13.88-13.44L13.88-13.44L12.08-13.44L12.08-4.24Q12.08-2.72 12.30-2.04Q12.52-1.36 13.08-1.12Q13.64-0.88 14.92-0.80L14.92-0.80L14.92 0Q12.60-0.12 8.24-0.12L8.24-0.12Q3.40-0.12 1.12 0L1.12 0L1.12-0.80Q2.40-0.88 2.98-1.12Q3.56-1.36 3.76-2.04Q3.96-2.72 3.96-4.24L3.96-4.24L3.96-24.08Q3.96-25.60 3.74-26.28Q3.52-26.96 2.96-27.20Q2.40-27.44 1.12-27.52L1.12-27.52L1.12-28.32Q3.40-28.20 8-28.20L8-28.20L12.60-28.24Q13.40-28.28 14.44-28.28L14.44-28.28Q20.52-28.28 23.50-26.56Q26.48-24.84 26.48-21.32L26.48-21.32Q26.48-18.32 24.24-16.20Q22-14.08 16.72-13.60L16.72-13.60Q20.80-13.32 22.88-12.06Q24.96-10.80 25.44-8.36L25.44-8.36L26.28-4.20Q26.56-2.72 26.96-2.16Q27.36-1.60 28.08-1.60L28.08-1.60Q28.80-1.60 29.32-2.12L29.32-2.12ZM14.24-27.52Q13.32-27.52 12.86-27.24Q12.40-26.96 12.24-26.24Q12.08-25.52 12.08-24.08L12.08-24.08L12.08-14.24L13.16-14.24Q16-14.24 17.04-15.98Q18.08-17.72 18.08-20.88L18.08-20.88Q18.08-24.16 17.18-25.84Q16.28-27.52 14.24-27.52L14.24-27.52Z M44.56-24.88Q48.84-24.88 52.06-23.42Q55.28-21.96 57.06-19.14Q58.84-16.32 58.84-12.40L58.84-12.40Q58.84-8.56 57.02-5.62Q55.20-2.68 51.94-1.06Q48.68 0.56 44.52 0.56L44.52 0.56Q40.24 0.56 37.02-0.90Q33.80-2.36 32.02-5.18Q30.24-8 30.24-11.92L30.24-11.92Q30.24-15.76 32.06-18.70Q33.88-21.64 37.14-23.26Q40.40-24.88 44.56-24.88L44.56-24.88ZM44.40-24.16Q42.56-24.16 41.16-22.62Q39.76-21.08 39-18.34Q38.24-15.60 38.24-12.08L38.24-12.08Q38.24-8.52 39.10-5.80Q39.96-3.08 41.42-1.62Q42.88-0.16 44.68-0.16L44.68-0.16Q46.52-0.16 47.92-1.70Q49.32-3.24 50.08-5.98Q50.84-8.72 50.84-12.24L50.84-12.24Q50.84-15.80 49.98-18.52Q49.12-21.24 47.66-22.70Q46.20-24.16 44.40-24.16L44.40-24.16Z M74.44-24.32L74.44-23.52Q73.16-23.44 72.58-23.20Q72-22.96 71.80-22.28Q71.60-21.60 71.60-20.08L71.60-20.08L71.60-3.44Q71.60-1.88 72.06-1.40Q72.52-0.92 73.64-0.92L73.64-0.92L74.56-0.92Q77.12-0.92 79.12-3Q81.12-5.08 81.92-9.60L81.92-9.60L82.84-9.60Q82.72-8.28 82.72-6.32L82.72-6.32Q82.72-3.52 83 0L83 0Q80.40-0.12 74.24-0.12L74.24-0.12Q65.44-0.12 61.04 0L61.04 0L61.04-0.80Q62.32-0.88 62.90-1.12Q63.48-1.36 63.68-2.04Q63.88-2.72 63.88-4.24L63.88-4.24L63.88-20.08Q63.88-21.60 63.66-22.28Q63.44-22.96 62.88-23.20Q62.32-23.44 61.04-23.52L61.04-23.52L61.04-24.32Q63.32-24.20 68.16-24.20L68.16-24.20Q72.20-24.20 74.44-24.32L74.44-24.32Z M98.40-24.32L98.40-23.52Q97.12-23.44 96.54-23.20Q95.96-22.96 95.76-22.28Q95.56-21.60 95.56-20.08L95.56-20.08L95.56-3.44Q95.56-1.88 96.02-1.40Q96.48-0.92 97.60-0.92L97.60-0.92L98.52-0.92Q101.08-0.92 103.08-3Q105.08-5.08 105.88-9.60L105.88-9.60L106.80-9.60Q106.68-8.28 106.68-6.32L106.68-6.32Q106.68-3.52 106.96 0L106.96 0Q104.36-0.12 98.20-0.12L98.20-0.12Q89.40-0.12 85 0L85 0L85-0.80Q86.28-0.88 86.86-1.12Q87.44-1.36 87.64-2.04Q87.84-2.72 87.84-4.24L87.84-4.24L87.84-20.08Q87.84-21.60 87.62-22.28Q87.40-22.96 86.84-23.20Q86.28-23.44 85-23.52L85-23.52L85-24.32Q87.28-24.20 92.12-24.20L92.12-24.20Q96.16-24.20 98.40-24.32L98.40-24.32Z M142.92-28.32Q142.64-23.88 142.64-20.40L142.64-20.40Q142.64-18.56 142.76-17.52L142.76-17.52L141.84-17.52Q140.52-22.76 138.44-25.08Q136.36-27.40 133.96-27.40L133.96-27.40L133.92-27.40L133.92-4.52Q133.92-2.84 134.26-2.08Q134.60-1.32 135.50-1.06Q136.40-0.80 138.36-0.80L138.36-0.80L138.36 0Q132.72-0.12 129.60-0.12L129.60-0.12Q126.76-0.12 121.36 0L121.36 0L121.36-0.80Q123.32-0.80 124.22-1.06Q125.12-1.32 125.46-2.08Q125.80-2.84 125.80-4.52L125.80-4.52L125.80-27.40L125.76-27.40Q123.32-27.40 121.26-25.10Q119.20-22.80 117.88-17.52L117.88-17.52L116.96-17.52Q117.08-18.56 117.08-20.40L117.08-20.40Q117.08-23.88 116.80-28.32L116.80-28.32Q120.60-28.20 129.88-28.20L129.88-28.20Q139.12-28.20 142.92-28.32L142.92-28.32Z M175.12-24.32L175.12-23.52Q173.84-23.44 173.26-23.20Q172.68-22.96 172.48-22.28Q172.28-21.60 172.28-20.08L172.28-20.08L172.28-4.24Q172.28-2.72 172.50-2.04Q172.72-1.36 173.28-1.12Q173.84-0.88 175.12-0.80L175.12-0.80L175.12 0Q173.08-0.12 168.80-0.12L168.80-0.12Q164.20-0.12 161.72 0L161.72 0L161.72-0.80Q163-0.88 163.58-1.12Q164.16-1.36 164.36-2.04Q164.56-2.72 164.56-4.24L164.56-4.24L164.56-11.84L155.56-11.84L155.56-4.24Q155.56-2.72 155.78-2.04Q156-1.36 156.56-1.12Q157.12-0.88 158.40-0.80L158.40-0.80L158.40 0Q155.96-0.12 151.32-0.12L151.32-0.12Q147.04-0.12 145 0L145 0L145-0.80Q146.28-0.88 146.86-1.12Q147.44-1.36 147.64-2.04Q147.84-2.72 147.84-4.24L147.84-4.24L147.84-20.08Q147.84-21.60 147.62-22.28Q147.40-22.96 146.84-23.20Q146.28-23.44 145-23.52L145-23.52L145-24.32Q147.04-24.20 151.32-24.20L151.32-24.20Q155.92-24.20 158.40-24.32L158.40-24.32L158.40-23.52Q157.12-23.44 156.54-23.20Q155.96-22.96 155.76-22.28Q155.56-21.60 155.56-20.08L155.56-20.08L155.56-12.64L164.56-12.64L164.56-20.08Q164.56-21.60 164.34-22.28Q164.12-22.96 163.56-23.20Q163-23.44 161.72-23.52L161.72-23.52L161.72-24.32Q164.16-24.20 168.80-24.20L168.80-24.20Q173.08-24.20 175.12-24.32L175.12-24.32Z M199.12-5.52Q199.12-3.08 199.40 0L199.40 0Q196.80-0.12 190.64-0.12L190.64-0.12Q181.84-0.12 177.44 0L177.44 0L177.44-0.80Q178.72-0.88 179.30-1.12Q179.88-1.36 180.08-2.04Q180.28-2.72 180.28-4.24L180.28-4.24L180.28-20.08Q180.28-21.60 180.06-22.28Q179.84-22.96 179.28-23.20Q178.72-23.44 177.44-23.52L177.44-23.52L177.44-24.32Q181.84-24.20 190.64-24.20L190.64-24.20Q196.24-24.20 198.60-24.32L198.60-24.32Q198.32-21.48 198.32-19.20L198.32-19.20Q198.32-17.64 198.44-16.72L198.44-16.72L197.52-16.72Q196.72-20.28 194.98-21.84Q193.24-23.40 190.56-23.40L190.56-23.40L190.04-23.40Q188.92-23.40 188.46-23Q188-22.60 188-21.28L188-21.28L188-12.64L188.92-12.64Q190.84-12.64 191.98-14.02Q193.12-15.40 193.44-17.12L193.44-17.12L194.36-17.12Q194.24-15.76 194.24-13.92L194.24-13.92L194.24-12.24Q194.24-10.28 194.48-7.36L194.48-7.36L193.56-7.36Q193.28-9.28 192.08-10.56Q190.88-11.84 188.92-11.84L188.92-11.84L188-11.84L188-3.04Q188-1.72 188.46-1.32Q188.92-0.92 190.04-0.92L190.04-0.92L190.96-0.92Q193.76-0.92 195.62-2.66Q197.48-4.40 198.32-8.40L198.32-8.40L199.24-8.40Q199.12-7.28 199.12-5.52L199.12-5.52Z M224.40-28.32Q232.68-28.32 236.80-24.78Q240.92-21.24 240.92-14.48L240.92-14.48Q240.92-10.12 238.90-6.86Q236.88-3.60 233.08-1.80Q229.28 0 224.04 0L224.04 0L221.56-0.04Q219.16-0.12 218.04-0.12L218.04-0.12Q213.36-0.12 211.08 0L211.08 0L211.08-0.80Q212.36-0.88 212.94-1.12Q213.52-1.36 213.72-2.04Q213.92-2.72 213.92-4.24L213.92-4.24L213.92-24.08Q213.92-25.60 213.70-26.28Q213.48-26.96 212.92-27.20Q212.36-27.44 211.08-27.52L211.08-27.52L211.08-28.32Q212.92-28.20 216.52-28.20L216.52-28.20L217.96-28.20L219.72-28.24Q223.08-28.32 224.40-28.32L224.40-28.32ZM225.00-27.60Q223.76-27.60 223.14-27.32Q222.52-27.04 222.28-26.32Q222.04-25.60 222.04-24.16L222.04-24.16L222.04-4.16Q222.04-2.72 222.28-2Q222.52-1.28 223.14-1Q223.76-0.72 225.04-0.72L225.04-0.72Q229.00-0.72 230.76-4.14Q232.52-7.56 232.52-14.32L232.52-14.32Q232.52-21.08 230.70-24.34Q228.88-27.60 225.00-27.60L225.00-27.60Z M256.72-24.32L256.72-23.52Q255.44-23.44 254.86-23.20Q254.28-22.96 254.08-22.28Q253.88-21.60 253.88-20.08L253.88-20.08L253.88-4.24Q253.88-2.72 254.08-2.04Q254.28-1.36 254.86-1.12Q255.44-0.88 256.72-0.80L256.72-0.80L256.72 0Q254.52-0.12 250.24-0.12L250.24-0.12Q245.48-0.12 243.32 0L243.32 0L243.32-0.80Q244.60-0.88 245.18-1.12Q245.76-1.36 245.96-2.04Q246.16-2.72 246.16-4.24L246.16-4.24L246.16-20.08Q246.16-21.60 245.94-22.28Q245.72-22.96 245.16-23.20Q244.60-23.44 243.32-23.52L243.32-23.52L243.32-24.32Q245.48-24.20 250.24-24.20L250.24-24.20Q254.48-24.20 256.72-24.32L256.72-24.32Z M272.36-24.88Q274.88-24.88 276.38-24.22Q277.88-23.56 279.40-22.28L279.40-22.28Q279.84-21.92 280.16-21.92L280.16-21.92Q280.96-21.92 281.20-24.32L281.20-24.32L282.12-24.32Q281.96-21.92 281.96-15.92L281.96-15.92L281.04-15.92Q280.60-18.16 280.22-19.14Q279.84-20.12 279.04-21.04L279.04-21.04Q277.92-22.28 276.60-22.98Q275.28-23.68 273.88-23.68L273.88-23.68Q271.76-23.68 270.20-22.28Q268.64-20.88 267.78-18.26Q266.92-15.64 266.92-12.08L266.92-12.08Q266.92-8.48 267.88-5.90Q268.84-3.32 270.48-1.98Q272.12-0.64 274.16-0.64L274.16-0.64Q275.64-0.64 277.04-1.34Q278.44-2.04 279.48-3.28L279.48-3.28Q280.28-4.24 280.64-5.38Q281-6.52 281.32-8.80L281.32-8.80L282.24-8.80Q282.24-2.52 282.40 0L282.40 0L281.48 0Q281.36-1.24 281.12-1.82Q280.88-2.40 280.48-2.40L280.48-2.40Q280.16-2.40 279.68-2.04L279.68-2.04Q278.24-0.84 276.52-0.14Q274.80 0.56 272.48 0.56L272.48 0.56Q268.52 0.56 265.46-0.92Q262.40-2.40 260.66-5.22Q258.92-8.04 258.92-11.92L258.92-11.92Q258.92-15.72 260.70-18.66Q262.48-21.60 265.54-23.24Q268.60-24.88 272.36-24.88L272.36-24.88Z M307.04-5.52Q307.04-3.08 307.32 0L307.32 0Q304.72-0.12 298.56-0.12L298.56-0.12Q289.76-0.12 285.36 0L285.36 0L285.36-0.80Q286.64-0.88 287.22-1.12Q287.80-1.36 288-2.04Q288.20-2.72 288.20-4.24L288.20-4.24L288.20-20.08Q288.20-21.60 287.98-22.28Q287.76-22.96 287.20-23.20Q286.64-23.44 285.36-23.52L285.36-23.52L285.36-24.32Q289.76-24.20 298.56-24.20L298.56-24.20Q304.16-24.20 306.52-24.32L306.52-24.32Q306.24-21.48 306.24-19.20L306.24-19.20Q306.24-17.64 306.36-16.72L306.36-16.72L305.44-16.72Q304.64-20.28 302.90-21.84Q301.16-23.40 298.48-23.40L298.48-23.40L297.96-23.40Q296.84-23.40 296.38-23Q295.92-22.60 295.92-21.28L295.92-21.28L295.92-12.64L296.84-12.64Q298.76-12.64 299.90-14.02Q301.04-15.40 301.36-17.12L301.36-17.12L302.28-17.12Q302.16-15.76 302.16-13.92L302.16-13.92L302.16-12.24Q302.16-10.28 302.40-7.36L302.40-7.36L301.48-7.36Q301.20-9.28 300-10.56Q298.80-11.84 296.84-11.84L296.84-11.84L295.92-11.84L295.92-3.04Q295.92-1.72 296.38-1.32Q296.84-0.92 297.96-0.92L297.96-0.92L298.88-0.92Q301.68-0.92 303.54-2.66Q305.40-4.40 306.24-8.40L306.24-8.40L307.16-8.40Q307.04-7.28 307.04-5.52L307.04-5.52Z"/></g>
</svg>
</g></svg></svg>