<svg version="1.1" preserveAspectRatio="none" xmlns="http://www.w3.org/2000/svg" width="500" height="500" viewBox="0 0 500 500"><rect width="100%" height="100%" fill="#141414" fill-opacity="1"/><svg viewBox="67.8955 203.2 403.2006 69.1" width="333" height="57.06911150429835" x="83.5px" y="221.4654px" xmlns="http://www.w3.org/2000/svg" xmlns:xlink="http://www.w3.org/1999/xlink" preserveAspectRatio="none"><defs></defs><style>.background {fill:#141414;fill-opacity:1;}.companyName {fill:#E9E41D;fill-opacity:1;}.icon3-str {stroke:#E9E41D;stroke-opacity:1;}.shapeStroke-str {stroke:#E5E5E5;stroke-opacity:1;}.text {fill:#E5E5E5;fill-opacity:1;}</style><g opacity="1" transform="rotate(0 67.8955 203.2)">
<svg width="403.2006" height="42" x="67.8955" y="203.2" version="1.1" preserveAspectRatio="none" viewBox="0 0 403.2006 42">
  <defs><rect x="0" y="0" width="403.2006" height="42" rx="0%" ry="0%" id="id-UPl23ini1680500610203"></rect></defs><use class="companyName shapeStroke-str" style="stroke-width:0;" xlink:href="#id-UPl23ini1680500610203"></use>
</svg>
</g><g opacity="1" transform="rotate(0 69.8955 255.2)">
<svg width="70.4162" height="17.1" x="69.8955" y="255.2" version="1.1" preserveAspectRatio="none" viewBox="2.08 -28.24 117.28 28.48">
  <g transform="matrix(1 0 0 1 0 0)" class="text"><path id="id-6izo4zJp4" d="M24.28-4.56L24.28-14L27.12-14L27.12-3.32Q25.16-1.60 22.48-0.68Q19.80 0.24 16.84 0.24L16.84 0.24Q12.64 0.24 9.28-1.60Q5.92-3.44 4-6.70Q2.08-9.96 2.08-14L2.08-14Q2.08-18.04 4-21.30Q5.92-24.56 9.28-26.40Q12.64-28.24 16.88-28.24L16.88-28.24Q20.08-28.24 22.76-27.22Q25.44-26.20 27.28-24.20L27.28-24.20L25.44-22.32Q22.12-25.60 17-25.60L17-25.60Q13.60-25.60 10.86-24.10Q8.12-22.60 6.56-19.94Q5-17.28 5-14L5-14Q5-10.72 6.56-8.08Q8.12-5.44 10.84-3.92Q13.56-2.40 16.96-2.40L16.96-2.40Q21.28-2.40 24.28-4.56L24.28-4.56Z M42.24-21.20Q46.36-21.20 48.56-19.14Q50.76-17.08 50.76-13.04L50.76-13.04L50.76 0L48.04 0L48.04-3.28Q47.08-1.64 45.22-0.72Q43.36 0.20 40.80 0.20L40.80 0.20Q37.28 0.20 35.20-1.48Q33.12-3.16 33.12-5.92L33.12-5.92Q33.12-8.60 35.06-10.24Q37-11.88 41.24-11.88L41.24-11.88L47.92-11.88L47.92-13.16Q47.92-15.88 46.40-17.30Q44.88-18.72 41.96-18.72L41.96-18.72Q39.96-18.72 38.12-18.06Q36.28-17.40 34.96-16.24L34.96-16.24L33.68-18.36Q35.28-19.72 37.52-20.46Q39.76-21.20 42.24-21.20L42.24-21.20ZM41.24-2.04Q43.64-2.04 45.36-3.14Q47.08-4.24 47.92-6.32L47.92-6.32L47.92-9.76L41.32-9.76Q35.92-9.76 35.92-6L35.92-6Q35.92-4.16 37.32-3.10Q38.72-2.04 41.24-2.04L41.24-2.04Z M84.72-21.20Q88.68-21.20 90.94-18.92Q93.20-16.64 93.20-12.20L93.20-12.20L93.20 0L90.36 0L90.36-11.92Q90.36-15.20 88.78-16.92Q87.20-18.64 84.32-18.64L84.32-18.64Q81.04-18.64 79.16-16.62Q77.28-14.60 77.28-11.04L77.28-11.04L77.28 0L74.44 0L74.44-11.92Q74.44-15.20 72.86-16.92Q71.28-18.64 68.36-18.64L68.36-18.64Q65.12-18.64 63.22-16.62Q61.32-14.60 61.32-11.04L61.32-11.04L61.32 0L58.48 0L58.48-21.04L61.20-21.04L61.20-17.20Q62.32-19.12 64.32-20.16Q66.32-21.20 68.92-21.20L68.92-21.20Q71.56-21.20 73.50-20.08Q75.44-18.96 76.40-16.76L76.40-16.76Q77.56-18.84 79.74-20.02Q81.92-21.20 84.72-21.20L84.72-21.20Z M119.36-10.52L119.32-9.64L101.72-9.64Q101.96-6.36 104.24-4.34Q106.52-2.32 110-2.32L110-2.32Q111.96-2.32 113.60-3.02Q115.24-3.72 116.44-5.08L116.44-5.08L118.04-3.24Q116.64-1.56 114.54-0.68Q112.44 0.20 109.92 0.20L109.92 0.20Q106.68 0.20 104.18-1.18Q101.68-2.56 100.28-5Q98.88-7.44 98.88-10.52L98.88-10.52Q98.88-13.60 100.22-16.04Q101.56-18.48 103.90-19.84Q106.24-21.20 109.16-21.20L109.16-21.20Q112.08-21.20 114.40-19.84Q116.72-18.48 118.04-16.06Q119.36-13.64 119.36-10.52L119.36-10.52ZM109.16-18.76Q106.12-18.76 104.06-16.82Q102-14.88 101.72-11.76L101.72-11.76L116.64-11.76Q116.36-14.88 114.30-16.82Q112.24-18.76 109.16-18.76L109.16-18.76Z"/></g>
</svg>
</g><g opacity="1" transform="rotate(0 69.8955 205.2)">
<svg width="399.2006" height="38" x="69.8955" y="205.2" version="1.1" preserveAspectRatio="none" viewBox="2.76 -29.4 315.16 30">
  <g transform="matrix(1 0 0 1 0 0)" class="background"><path id="id-D6z1nYkh13" d="M14.80-21.60L11.80-21.60L11.80-16.48L14.80-16.48Q15.84-16.48 16.20-17.02Q16.56-17.56 16.56-18.36L16.56-18.36L16.56-19.72Q16.56-20.52 16.20-21.06Q15.84-21.60 14.80-21.60L14.80-21.60ZM10.36 0L10.36 0L4.20 0Q3.44 0 3.10-0.34Q2.76-0.68 2.76-1.44L2.76-1.44L2.76-27.36Q2.76-28.12 3.10-28.46Q3.44-28.80 4.20-28.80L4.20-28.80L17.52-28.80Q22-28.80 23.70-26.94Q25.40-25.08 25.40-22.12L25.40-22.12L25.40-20.28Q25.40-18.60 24.90-17.42Q24.40-16.24 23.16-15.72L23.16-15.72Q25.32-15.48 26.66-13.96Q28-12.44 28-9.92L28-9.92L28-1.44Q28-0.68 27.66-0.34Q27.32 0 26.56 0L26.56 0L20.36 0Q19.60 0 19.26-0.34Q18.92-0.68 18.92-1.44L18.92-1.44L18.92-7.56Q18.92-8.44 18.58-8.86Q18.24-9.28 17.40-9.28L17.40-9.28L11.80-9.28L11.80-1.44Q11.80-0.68 11.46-0.34Q11.12 0 10.36 0Z M56.68-21.20L56.68-7.56Q56.68-5.72 56.14-4.22Q55.60-2.72 54.22-1.66Q52.84-0.60 50.42 0Q48 0.60 44.28 0.60L44.28 0.60Q40.56 0.60 38.12 0Q35.68-0.60 34.30-1.66Q32.92-2.72 32.38-4.22Q31.84-5.72 31.84-7.56L31.84-7.56L31.84-21.20Q31.84-23.04 32.38-24.54Q32.92-26.04 34.30-27.12Q35.68-28.20 38.12-28.80Q40.56-29.40 44.28-29.40L44.28-29.40Q48-29.40 50.42-28.80Q52.84-28.20 54.22-27.12Q55.60-26.04 56.14-24.54Q56.68-23.04 56.68-21.20L56.68-21.20ZM40.92-19.76L40.92-9Q40.92-8.20 41.52-7.66Q42.12-7.12 44.28-7.12L44.28-7.12Q46.44-7.12 47.04-7.66Q47.64-8.20 47.64-9L47.64-9L47.64-19.76Q47.64-20.52 47.04-21.06Q46.44-21.60 44.28-21.60L44.28-21.60Q42.12-21.60 41.52-21.06Q40.92-20.52 40.92-19.76L40.92-19.76Z M83.56 0L83.56 0L63.20 0Q62.44 0 62.10-0.34Q61.76-0.68 61.76-1.44L61.76-1.44L61.76-27.36Q61.76-28.12 62.10-28.46Q62.44-28.80 63.20-28.80L63.20-28.80L69.40-28.80Q70.16-28.80 70.50-28.46Q70.84-28.12 70.84-27.36L70.84-27.36L70.84-7.56L76.32-7.56L76.32-14.04Q76.32-14.80 76.66-15.14Q77-15.48 77.76-15.48L77.76-15.48L83.56-15.48Q84.32-15.48 84.66-15.14Q85-14.80 85-14.04L85-14.04L85-1.44Q85-0.68 84.66-0.34Q84.32 0 83.56 0Z M111.36 0L111.36 0L91 0Q90.24 0 89.90-0.34Q89.56-0.68 89.56-1.44L89.56-1.44L89.56-27.36Q89.56-28.12 89.90-28.46Q90.24-28.80 91-28.80L91-28.80L97.20-28.80Q97.96-28.80 98.30-28.46Q98.64-28.12 98.64-27.36L98.64-27.36L98.64-7.56L104.12-7.56L104.12-14.04Q104.12-14.80 104.46-15.14Q104.80-15.48 105.56-15.48L105.56-15.48L111.36-15.48Q112.12-15.48 112.46-15.14Q112.80-14.80 112.80-14.04L112.80-14.04L112.80-1.44Q112.80-0.68 112.46-0.34Q112.12 0 111.36 0Z M139.16 0L139.16 0L132.68 0Q131.92 0 131.58-0.34Q131.24-0.68 131.24-1.44L131.24-1.44L131.24-21.08L125.36-21.08Q124.60-21.08 124.26-21.42Q123.92-21.76 123.92-22.52L123.92-22.52L123.92-27.36Q123.92-28.12 124.26-28.46Q124.60-28.80 125.36-28.80L125.36-28.80L146.48-28.80Q147.24-28.80 147.58-28.46Q147.92-28.12 147.92-27.36L147.92-27.36L147.92-22.52Q147.92-21.76 147.58-21.42Q147.24-21.08 146.48-21.08L146.48-21.08L140.60-21.08L140.60-1.44Q140.60-0.68 140.26-0.34Q139.92 0 139.16 0Z M159.44 0L159.44 0L153.24 0Q152.48 0 152.14-0.34Q151.80-0.68 151.80-1.44L151.80-1.44L151.80-27.36Q151.80-28.12 152.14-28.46Q152.48-28.80 153.24-28.80L153.24-28.80L159.44-28.80Q160.20-28.80 160.54-28.46Q160.88-28.12 160.88-27.36L160.88-27.36L160.88-18.68L167.56-18.68L167.56-27.36Q167.56-28.12 167.90-28.46Q168.24-28.80 169-28.80L169-28.80L175.20-28.80Q175.96-28.80 176.30-28.46Q176.64-28.12 176.64-27.36L176.64-27.36L176.64-1.44Q176.64-0.68 176.30-0.34Q175.96 0 175.20 0L175.20 0L169 0Q168.24 0 167.90-0.34Q167.56-0.68 167.56-1.44L167.56-1.44L167.56-10.32L160.88-10.32L160.88-1.44Q160.88-0.68 160.54-0.34Q160.20 0 159.44 0Z M202.16 0L202.16 0L183.60 0Q182.84 0 182.50-0.34Q182.16-0.68 182.16-1.44L182.16-1.44L182.16-27.36Q182.16-28.12 182.50-28.46Q182.84-28.80 183.60-28.80L183.60-28.80L202.16-28.80Q202.92-28.80 203.26-28.46Q203.60-28.12 203.60-27.36L203.60-27.36L203.60-22.68Q203.60-21.92 203.26-21.58Q202.92-21.24 202.16-21.24L202.16-21.24L191.12-21.24L191.12-18.16L198.92-18.16Q199.68-18.16 200.02-17.82Q200.36-17.48 200.36-16.72L200.36-16.72L200.36-12.44Q200.36-11.68 200.02-11.34Q199.68-11 198.92-11L198.92-11L191.12-11L191.12-7.56L202.16-7.56Q202.92-7.56 203.26-7.22Q203.60-6.88 203.60-6.12L203.60-6.12L203.60-1.44Q203.60-0.68 203.26-0.34Q202.92 0 202.16 0Z M232.24 0L232.24 0L218.76 0Q218.00 0 217.66-0.34Q217.32-0.68 217.32-1.44L217.32-1.44L217.32-27.36Q217.32-28.12 217.66-28.46Q218.00-28.80 218.76-28.80L218.76-28.80L232.24-28.80Q237.24-28.80 239.66-26.80Q242.08-24.80 242.08-20.64L242.08-20.64L242.08-8.16Q242.08-4 239.66-2Q237.24 0 232.24 0ZM231.16-21.16L226.40-21.16L226.40-7.56L231.16-7.56Q232.12-7.56 232.58-8.04Q233.04-8.52 233.04-9.52L233.04-9.52L233.04-19.24Q233.04-20.24 232.58-20.70Q232.12-21.16 231.16-21.16L231.16-21.16Z M265 0L247.96 0Q247.20 0 246.86-0.34Q246.52-0.68 246.52-1.44L246.52-1.44L246.52-6.20Q246.52-6.96 246.86-7.30Q247.20-7.64 247.96-7.64L247.96-7.64L251.92-7.64L251.92-21.08L247.96-21.08Q247.20-21.08 246.86-21.42Q246.52-21.76 246.52-22.52L246.52-22.52L246.52-27.36Q246.52-28.12 246.86-28.46Q247.20-28.80 247.96-28.80L247.96-28.80L265-28.80Q265.76-28.80 266.10-28.46Q266.44-28.12 266.44-27.36L266.44-27.36L266.44-22.52Q266.44-21.76 266.10-21.42Q265.76-21.08 265-21.08L265-21.08L261.12-21.08L261.12-7.64L265-7.64Q265.76-7.64 266.10-7.30Q266.44-6.96 266.44-6.20L266.44-6.20L266.44-1.44Q266.44-0.68 266.10-0.34Q265.76 0 265 0L265 0Z M290.52 0L290.52 0L280.76 0Q275.76 0 273.34-2Q270.92-4 270.92-8.16L270.92-8.16L270.92-20.60Q270.92-24.76 273.34-26.78Q275.76-28.80 280.76-28.80L280.76-28.80L290.52-28.80Q291.28-28.80 291.62-28.46Q291.96-28.12 291.96-27.36L291.96-27.36L291.96-22.52Q291.96-21.76 291.62-21.42Q291.28-21.08 290.52-21.08L290.52-21.08L282.48-21.08Q281.24-21.08 280.64-20.58Q280.04-20.08 280.04-19.08L280.04-19.08L280.04-9.56Q280.04-8.56 280.64-8.10Q281.24-7.64 282.48-7.64L282.48-7.64L290.52-7.64Q291.28-7.64 291.62-7.30Q291.96-6.96 291.96-6.20L291.96-6.20L291.96-1.44Q291.96-0.68 291.62-0.34Q291.28 0 290.52 0Z M316.48 0L316.48 0L297.92 0Q297.16 0 296.82-0.34Q296.48-0.68 296.48-1.44L296.48-1.44L296.48-27.36Q296.48-28.12 296.82-28.46Q297.16-28.80 297.92-28.80L297.92-28.80L316.48-28.80Q317.24-28.80 317.58-28.46Q317.92-28.12 317.92-27.36L317.92-27.36L317.92-22.68Q317.92-21.92 317.58-21.58Q317.24-21.24 316.48-21.24L316.48-21.24L305.44-21.24L305.44-18.16L313.24-18.16Q314-18.16 314.34-17.82Q314.68-17.48 314.68-16.72L314.68-16.72L314.68-12.44Q314.68-11.68 314.34-11.34Q314-11 313.24-11L313.24-11L305.44-11L305.44-7.56L316.48-7.56Q317.24-7.56 317.58-7.22Q317.92-6.88 317.92-6.12L317.92-6.12L317.92-1.44Q317.92-0.68 317.58-0.34Q317.24 0 316.48 0Z"/></g>
</svg>
</g></svg></svg>